<svg
  xmlns="http://www.w3.org/2000/svg"
  width="36"
  height="36"
  viewBox="0 0 36 36"
  fill="none"
>
  <path
    fillRule="evenodd"
    clipRule="evenodd"
    d="M13.8655 24.6558C13.6603 24.8764 13.3822 25.0002 13.0923 25C12.8024 24.9998 12.5245 24.8756 12.3196 24.6547C12.1148 24.4338 11.9998 24.1343 12 23.8221C12.0002 23.5099 12.1156 23.2106 12.3207 22.99L21.2703 13.3528H15.2223C14.9326 13.3528 14.6547 13.2289 14.4498 13.0083C14.2449 12.7876 14.1298 12.4884 14.1298 12.1764C14.1298 11.8644 14.2449 11.5652 14.4498 11.3446C14.6547 11.1239 14.9326 11 15.2223 11H23.9075C24.1973 11 24.4751 11.1239 24.68 11.3446C24.8849 11.5652 25 11.8644 25 12.1764V21.5289C25 21.8409 24.8849 22.1402 24.68 22.3608C24.4751 22.5814 24.1973 22.7053 23.9075 22.7053C23.6178 22.7053 23.3399 22.5814 23.135 22.3608C22.9301 22.1402 22.815 21.8409 22.815 21.5289V15.0163L13.8655 24.6558Z"
    fill="oklch(0.5913 0.1865 23.22)"
  ></path>
  <circle
    cx="18"
    cy="18"
    r="17.5"
    stroke="oklch(0.269 0 0)"
  ></circle>
</svg>