<svg width="28" height="28" viewBox="0 0 28 28" fill="none" xmlns="http://www.w3.org/2000/svg">
<g clip-path="url(#clip0_1257_271)">
<path d="M28 14C28 6.26801 21.732 0 14 0C6.26801 0 0 6.26801 0 14C0 21.732 6.26801 28 14 28C21.732 28 28 21.732 28 14Z" fill="#5865F2"/>
<path d="M20.7924 7.57662C19.5432 6.98575 18.2036 6.55043 16.8029 6.30109C16.7774 6.29628 16.7519 6.30831 16.7388 6.33236C16.5665 6.64823 16.3757 7.06031 16.242 7.3842C14.7355 7.15171 13.2368 7.15171 11.7612 7.3842C11.6275 7.05311 11.4297 6.64823 11.2567 6.33236C11.2435 6.30911 11.218 6.29709 11.1925 6.30109C9.79265 6.54963 8.45304 6.98496 7.20303 7.57662C7.1922 7.58143 7.18293 7.58946 7.17677 7.59987C4.6358 11.513 3.93972 15.33 4.28119 19.0997C4.28274 19.1181 4.29278 19.1358 4.30669 19.147C5.98315 20.4161 7.60709 21.1866 9.20087 21.6972C9.22638 21.7053 9.25341 21.6956 9.26964 21.674C9.64665 21.1433 9.98272 20.5837 10.2709 19.9952C10.2879 19.9607 10.2716 19.9198 10.2369 19.9062C9.70382 19.6978 9.19624 19.4436 8.70797 19.155C8.66935 19.1318 8.66626 19.0748 8.70179 19.0476C8.80454 18.9682 8.90731 18.8856 9.00542 18.8022C9.02318 18.787 9.04791 18.7838 9.06878 18.7934C12.2764 20.3031 15.7491 20.3031 18.9189 18.7934C18.9398 18.783 18.9645 18.7862 18.9831 18.8014C19.0812 18.8848 19.184 18.9682 19.2875 19.0476C19.323 19.0748 19.3207 19.1318 19.2821 19.155C18.7938 19.4492 18.2862 19.6978 17.7524 19.9054C17.7176 19.9191 17.7022 19.9607 17.7192 19.9952C18.0135 20.5829 18.3496 21.1425 18.7196 21.6732C18.7351 21.6956 18.7629 21.7053 18.7884 21.6972C20.3899 21.1866 22.0138 20.4161 23.6903 19.147C23.705 19.1358 23.7143 19.1189 23.7158 19.1005C24.1245 14.7424 23.0313 10.9567 20.8179 7.60067C20.8125 7.58946 20.8032 7.58143 20.7924 7.57662ZM10.7499 16.8044C9.78415 16.8044 8.98842 15.8904 8.98842 14.768C8.98842 13.6456 9.76872 12.7317 10.7499 12.7317C11.7387 12.7317 12.5268 13.6536 12.5113 14.768C12.5113 15.8904 11.731 16.8044 10.7499 16.8044ZM17.2626 16.8044C16.2969 16.8044 15.5011 15.8904 15.5011 14.768C15.5011 13.6456 16.2814 12.7317 17.2626 12.7317C18.2515 12.7317 19.0395 13.6536 19.024 14.768C19.024 15.8904 18.2515 16.8044 17.2626 16.8044Z" fill="white"/>
</g>
<defs>
<clipPath id="clip0_1257_271">
<rect width="28" height="28" fill="white"/>
</clipPath>
</defs>
</svg>
