<svg width="32" height="32" viewBox="0 0 32 32" fill="none" xmlns="http://www.w3.org/2000/svg">
<path d="M25.7032 6.74078C23.9185 5.93505 22.0048 5.34142 20.0039 5.00143C19.9675 4.99487 19.931 5.01126 19.9122 5.04405C19.6661 5.47479 19.3935 6.03671 19.2025 6.47839C17.0505 6.16135 14.9094 6.16135 12.8013 6.47839C12.6104 6.02689 12.3279 5.47479 12.0806 5.04405C12.0619 5.01236 12.0255 4.99595 11.9891 5.00143C9.98923 5.34034 8.07548 5.93396 6.28976 6.74078C6.27429 6.74734 6.26105 6.75828 6.25225 6.77249C2.62229 12.1087 1.62789 17.3136 2.11571 22.4541C2.11793 22.4792 2.13227 22.5032 2.15213 22.5185C4.54708 24.2492 6.86698 25.2998 9.14382 25.9962C9.18026 26.0071 9.21886 25.994 9.24206 25.9644C9.78059 25.2407 10.2608 24.4777 10.6724 23.6752C10.6967 23.6283 10.6735 23.5725 10.6238 23.5539C9.86228 23.2696 9.13719 22.923 8.43968 22.5295C8.3845 22.4978 8.38009 22.4202 8.43084 22.383C8.57763 22.2747 8.72445 22.1621 8.86461 22.0484C8.88996 22.0277 8.92529 22.0233 8.95511 22.0365C13.5375 24.095 18.4984 24.095 23.0267 22.0365C23.0566 22.0222 23.0919 22.0266 23.1184 22.0474C23.2586 22.1611 23.4054 22.2747 23.5532 22.383C23.604 22.4202 23.6007 22.4978 23.5455 22.5295C22.848 22.9307 22.1229 23.2696 21.3603 23.5527C21.3106 23.5713 21.2885 23.6283 21.3128 23.6752C21.7332 24.4766 22.2134 25.2397 22.742 25.9634C22.7641 25.994 22.8038 26.0071 22.8403 25.9962C25.1281 25.2998 27.448 24.2492 29.8429 22.5185C29.8639 22.5032 29.8772 22.4803 29.8794 22.4552C30.4632 16.5122 28.9016 11.3499 25.7395 6.77357C25.7318 6.75828 25.7186 6.74734 25.7032 6.74078ZM11.3566 19.3241C9.97705 19.3241 8.84032 18.0778 8.84032 16.5472C8.84032 15.0167 9.955 13.7704 11.3566 13.7704C12.7693 13.7704 13.8951 15.0276 13.873 16.5472C13.873 18.0778 12.7583 19.3241 11.3566 19.3241ZM20.6605 19.3241C19.281 19.3241 18.1441 18.0778 18.1441 16.5472C18.1441 15.0167 19.2588 13.7704 20.6605 13.7704C22.0732 13.7704 23.1989 15.0276 23.1769 16.5472C23.1769 18.0778 22.0732 19.3241 20.6605 19.3241Z" fill="#0A0A0A"/>
</svg>
