<svg width="32" height="32" viewBox="0 0 32 32" fill="none" xmlns="http://www.w3.org/2000/svg">
<path d="M23.9524 22.9524V11.9048H12.9048V11.2143C12.9048 10.072 13.8339 9.14286 14.9762 9.14286H17.0476V5H14.9762C13.3287 5.00205 11.7492 5.65742 10.5843 6.82238C9.41933 7.98734 8.76395 9.56678 8.7619 11.2143V11.9048H6V16.0476H8.7619V22.9524H6V27.0952H15.6667V22.9524H12.9048V16.0476H19.8482V22.9524H17.0476V27.0952H26.7143V22.9524H23.9524Z" fill="#0A0A0A"/>
<path d="M21.3667 8.71427C22.5107 8.71427 23.4381 7.78686 23.4381 6.64284C23.4381 5.49882 22.5107 4.57141 21.3667 4.57141C20.2226 4.57141 19.2952 5.49882 19.2952 6.64284C19.2952 7.78686 20.2226 8.71427 21.3667 8.71427Z" fill="#0A0A0A"/>
</svg>
