<svg width="28" height="28" viewBox="0 0 28 28" fill="none" xmlns="http://www.w3.org/2000/svg">
<g clip-path="url(#clip0_1257_283)">
<path d="M14 28C21.732 28 28 21.732 28 14C28 6.26801 21.732 0 14 0C6.26801 0 0 6.26801 0 14C0 21.732 6.26801 28 14 28Z" fill="#1DBF73"/>
<path d="M17.415 10.4202C18.2329 10.4202 18.896 9.75713 18.896 8.93922C18.896 8.1213 18.2329 7.45825 17.415 7.45825C16.5971 7.45825 15.934 8.1213 15.934 8.93922C15.934 9.75713 16.5971 10.4202 17.415 10.4202Z" fill="white"/>
<path d="M18.9621 11.3914H12.1828V10.9471C12.1828 10.0747 13.0553 10.0581 13.4995 10.0581C14.0094 10.0581 14.2403 10.1077 14.2403 10.1077V7.70467C13.8799 7.65978 13.5171 7.63787 13.154 7.63909C11.7386 7.63909 9.12168 8.03372 9.12168 11.0293V11.4101H7.88708V13.6318H9.12168V18.3222H7.96976V20.5439H13.5315V18.32H12.1817V13.6296H15.8828V18.32H14.7325V20.5417H20.1146V18.32H18.9621V11.3914Z" fill="white"/>
</g>
<defs>
<clipPath id="clip0_1257_283">
<rect width="28" height="28" fill="white"/>
</clipPath>
</defs>
</svg>
