<svg width="28" height="28" viewBox="0 0 28 28" fill="none" xmlns="http://www.w3.org/2000/svg">
<g clip-path="url(#clip0_1257_256)">
<path d="M28 14C28 6.26801 21.732 0 14 0C6.26801 0 0 6.26801 0 14C0 21.732 6.26801 28 14 28C21.732 28 28 21.732 28 14Z" fill="#191717"/>
<path fill-rule="evenodd" clip-rule="evenodd" d="M13.9965 4.8999C11.7218 4.90108 9.52163 5.70675 7.78949 7.17283C6.05735 8.63892 4.90616 10.6698 4.54176 12.9024C4.17736 15.135 4.62351 17.4236 5.80044 19.3592C6.97738 21.2947 8.80834 22.7508 10.9659 23.4672C11.4419 23.5556 11.6212 23.2606 11.6212 23.0097C11.6212 22.7589 11.6117 22.0316 11.6085 21.2364C8.94293 21.8123 8.37967 20.1116 8.37967 20.1116C7.94492 19.0072 7.31659 18.7169 7.31659 18.7169C6.4471 18.1269 7.38165 18.1379 7.38165 18.1379C8.34476 18.2058 8.85091 19.1208 8.85091 19.1208C9.70454 20.577 11.0929 20.1558 11.6387 19.9096C11.7244 19.2928 11.9735 18.8731 12.248 18.6349C10.1187 18.3951 7.88145 17.5779 7.88145 13.9272C7.86825 12.9804 8.2216 12.0648 8.86837 11.3698C8.76999 11.13 8.44155 10.1614 8.96197 8.8456C8.96197 8.8456 9.76642 8.59002 11.5974 9.82217C13.168 9.39512 14.825 9.39512 16.3955 9.82217C18.225 8.59002 19.0278 8.8456 19.0278 8.8456C19.5498 10.1582 19.2214 11.1269 19.123 11.3698C19.7718 12.0649 20.1259 12.9821 20.1115 13.9304C20.1115 17.5889 17.8696 18.3951 15.7371 18.6302C16.0798 18.9268 16.386 19.5058 16.386 20.3956C16.386 21.6703 16.3749 22.6958 16.3749 23.0097C16.3749 23.2637 16.5479 23.5603 17.0334 23.4672C19.1912 22.7507 21.0224 21.2943 22.1993 19.3585C23.3762 17.4226 23.8221 15.1336 23.4573 12.9008C23.0925 10.6681 21.9407 8.63713 20.208 7.1713C18.4753 5.70547 16.2747 4.90033 13.9997 4.8999H13.9965Z" fill="white"/>
<path d="M8.04299 18.5798C8.02236 18.6271 7.9462 18.6413 7.88432 18.6082C7.82244 18.575 7.77643 18.5135 7.79864 18.4646C7.82086 18.4157 7.89543 18.4031 7.95731 18.4362C8.01919 18.4693 8.06679 18.5324 8.04299 18.5798Z" fill="white"/>
<path d="M8.43183 19.0104C8.39897 19.0269 8.36138 19.0314 8.32549 19.0234C8.2896 19.0153 8.25764 18.9951 8.23508 18.9662C8.1732 18.9 8.1605 18.8085 8.2081 18.7674C8.2557 18.7264 8.34139 18.7453 8.40327 18.8116C8.46515 18.8779 8.47943 18.9694 8.43183 19.0104Z" fill="white"/>
<path d="M8.80964 19.5578C8.75093 19.5988 8.65097 19.5578 8.59543 19.4758C8.58008 19.4611 8.56786 19.4434 8.55951 19.4239C8.55117 19.4044 8.54688 19.3834 8.54688 19.3622C8.54688 19.341 8.55117 19.32 8.55951 19.3005C8.56786 19.281 8.58008 19.2633 8.59543 19.2486C8.65414 19.2092 8.75411 19.2486 8.80964 19.3291C8.86517 19.4095 8.86676 19.5168 8.80964 19.5578Z" fill="white"/>
<path d="M9.32213 20.0879C9.26977 20.1463 9.16346 20.1305 9.0762 20.0516C8.98893 19.9728 8.9683 19.8655 9.02066 19.8087C9.07302 19.7519 9.17933 19.7677 9.26977 19.845C9.36021 19.9223 9.37766 20.0311 9.32213 20.0879Z" fill="white"/>
<path d="M10.0405 20.3971C10.0167 20.4713 9.90878 20.5044 9.80089 20.4728C9.693 20.4413 9.62159 20.3529 9.64222 20.2772C9.66285 20.2015 9.77233 20.1668 9.88181 20.2015C9.99129 20.2362 10.0611 20.3198 10.0405 20.3971Z" fill="white"/>
<path d="M10.8245 20.4509C10.8245 20.5282 10.7357 20.5944 10.6214 20.596C10.5072 20.5976 10.4136 20.5345 10.4136 20.4572C10.4136 20.3799 10.5024 20.3136 10.6167 20.312C10.7309 20.3105 10.8245 20.372 10.8245 20.4509Z" fill="white"/>
<path d="M11.5544 20.3294C11.5687 20.4067 11.4894 20.4871 11.3751 20.5061C11.2609 20.525 11.1609 20.4792 11.1466 20.4035C11.1323 20.3278 11.2149 20.2458 11.3259 20.2252C11.437 20.2047 11.5401 20.2521 11.5544 20.3294Z" fill="white"/>
</g>
<defs>
<clipPath id="clip0_1257_256">
<rect width="28" height="28" fill="white"/>
</clipPath>
</defs>
</svg>
