<svg width="32" height="32" viewBox="0 0 32 32" fill="none" xmlns="http://www.w3.org/2000/svg">
<path fill-rule="evenodd" clip-rule="evenodd" d="M16 2C8.26498 2 2 8.42347 2 16.3541C2 22.7059 6.00748 28.0706 11.5725 29.9726C12.2725 30.0982 12.535 29.6675 12.535 29.2907C12.535 28.9499 12.5175 27.8195 12.5175 26.6172C8.99998 27.2812 8.08999 25.7381 7.80997 24.9307C7.65247 24.5179 6.96998 23.2441 6.37498 22.9031C5.88499 22.6339 5.18498 21.9701 6.35749 21.9523C7.45999 21.9342 8.24749 22.9929 8.50999 23.4235C9.76998 25.5945 11.7825 24.9845 12.5875 24.6077C12.71 23.6748 13.0775 23.0467 13.48 22.6878C10.365 22.3291 7.10998 21.091 7.10998 15.6005C7.10998 14.0395 7.65247 12.7476 8.54497 11.7428C8.40499 11.384 7.91497 9.9127 8.68498 7.93902C8.68498 7.93902 9.85747 7.56223 12.535 9.41031C13.655 9.08734 14.845 8.92586 16.035 8.92586C17.225 8.92586 18.415 9.08734 19.535 9.41031C22.2124 7.54427 23.385 7.93902 23.385 7.93902C24.1549 9.9127 23.6649 11.384 23.5249 11.7428C24.4174 12.7476 24.96 14.0216 24.96 15.6005C24.96 21.1089 21.6874 22.3291 18.5725 22.6878C19.08 23.1365 19.5175 23.9977 19.5175 25.3434C19.5175 27.2631 19.5 28.8063 19.5 29.2907C19.5 29.6675 19.7625 30.116 20.4624 29.9726C23.2418 29.0106 25.6568 27.1792 27.3677 24.7362C29.0785 22.2933 29.9992 19.3617 30 16.3541C30 8.42347 23.7349 2 16 2Z" fill="#0A0A0A"/>
</svg>
