<svg width="32" height="32" viewBox="0 0 32 32" fill="none" xmlns="http://www.w3.org/2000/svg">
<path d="M27.2727 5.71122V25.5614C27.2727 26.0154 27.0924 26.4506 26.7715 26.7715C26.4506 27.0924 26.0154 27.2727 25.5614 27.2727H5.71122C5.25739 27.2727 4.82213 27.0924 4.50121 26.7715C4.1803 26.4506 4 26.0154 4 25.5614V5.71122C4 5.25737 4.1803 4.82213 4.50121 4.50121C4.82213 4.1803 5.25739 4 5.71122 4H25.5614C26.0154 4 26.4506 4.1803 26.7715 4.50121C27.0924 4.82213 27.2727 5.25737 27.2727 5.71122ZM10.8449 12.8984H7.42247V23.8503H10.8449V12.8984ZM11.1529 9.13369C11.1547 8.87481 11.1055 8.6181 11.0081 8.37824C10.9107 8.13838 10.767 7.92005 10.5852 7.73573C10.4035 7.55138 10.1872 7.40469 9.94866 7.30395C9.71017 7.20322 9.45417 7.15045 9.19529 7.14866H9.13369C8.60722 7.14866 8.10233 7.35781 7.73006 7.73006C7.35781 8.10233 7.14866 8.60722 7.14866 9.13369C7.14866 9.66016 7.35781 10.1651 7.73006 10.5373C8.10233 10.9096 8.60722 11.1187 9.13369 11.1187C9.3926 11.1251 9.65022 11.0804 9.89182 10.9872C10.1334 10.8939 10.3543 10.754 10.5418 10.5754C10.7293 10.3968 10.8798 10.1829 10.9847 9.94615C11.0896 9.70935 11.1467 9.45419 11.1529 9.19529V9.13369ZM23.8503 17.197C23.8503 13.9046 21.7557 12.6246 19.6749 12.6246C18.9936 12.5905 18.3152 12.7356 17.7075 13.0455C17.0997 13.3553 16.5839 13.8191 16.2113 14.3906H16.1155V12.8984H12.8984V23.8503H16.3208V18.0252C16.2714 17.4287 16.4593 16.8366 16.8438 16.3778C17.2283 15.919 17.7783 15.6304 18.3743 15.5748H18.5044C19.5927 15.5748 20.4004 16.2592 20.4004 17.9842V23.8503H23.8229L23.8503 17.197Z" fill="#0E100F"/>
</svg>
