<svg width="28" height="28" viewBox="0 0 28 28" fill="none" xmlns="http://www.w3.org/2000/svg">
<g clip-path="url(#clip0_1257_267)">
<path d="M28 14C28 6.26801 21.732 0 14 0C6.26801 0 0 6.26801 0 14C0 21.732 6.26801 28 14 28C21.732 28 28 21.732 28 14Z" fill="#0A66C2"/>
<path d="M20.8927 7H8.10729C7.81362 7 7.53198 7.11666 7.32432 7.32432C7.11667 7.53198 7 7.81363 7 8.1073V20.8927C7 21.1864 7.11667 21.4681 7.32432 21.6757C7.53198 21.8834 7.81362 22 8.10729 22H20.8927C21.1864 22 21.468 21.8834 21.6756 21.6757C21.8833 21.4681 22 21.1864 22 20.8927V8.1073C22 7.81363 21.8833 7.53198 21.6756 7.32432C21.468 7.11666 21.1864 7 20.8927 7ZM11.4709 19.7781H9.21563V12.6146H11.4709V19.7781ZM10.3417 11.6219C10.0859 11.6205 9.8362 11.5432 9.62421 11.4C9.41222 11.2568 9.24741 11.0541 9.15055 10.8173C9.0537 10.5805 9.02916 10.3204 9.08002 10.0697C9.13089 9.81896 9.25488 9.58893 9.43635 9.40862C9.61782 9.22831 9.84864 9.1058 10.0997 9.05655C10.3507 9.00729 10.6107 9.0335 10.8468 9.13187C11.083 9.23024 11.2847 9.39637 11.4266 9.60927C11.5684 9.82217 11.644 10.0723 11.6438 10.3281C11.6462 10.4994 11.6141 10.6694 11.5494 10.828C11.4847 10.9867 11.3888 11.1306 11.2672 11.2513C11.1457 11.3721 11.0012 11.467 10.8421 11.5307C10.6831 11.5944 10.5129 11.6254 10.3417 11.6219ZM19.7833 19.7844H17.5292V15.8708C17.5292 14.7167 17.0385 14.3604 16.4052 14.3604C15.7364 14.3604 15.0802 14.8647 15.0802 15.9V19.7844H12.825V12.6198H14.9937V13.6125H15.023C15.2406 13.1719 16.0031 12.4188 17.1667 12.4188C18.425 12.4188 19.7844 13.1657 19.7844 15.3531L19.7833 19.7844Z" fill="white"/>
</g>
<defs>
<clipPath id="clip0_1257_267">
<rect width="28" height="28" fill="white"/>
</clipPath>
</defs>
</svg>
